<svg xmlns="http://www.w3.org/2000/svg" viewBox="0 0 1475 913" preserveAspectRatio="xMidYMid" width="1475" height="913"
     style="shape-rendering: auto; display: block; background: rgb(255, 255, 255);">
    <g data-idx="1">
        <circle fill="rgb(255, 218, 221)" cx="27.39" cy="27.39" r="6.573600000000001" fill-opacity="0.8688515815717432"
                transform="matrix(1.111148476600647,0,0,1.111148476600647,-1.461290785009055,53.31870990163645)"
                data-idx="2">

        </circle>
        <circle fill="rgb(255, 226, 229)" cx="27.39" cy="27.39" r="6.573600000000001" fill-opacity="1"
                transform="matrix(0.6640053987503052,0,0,0.6640053987503052,4.41738850674767,168.75739342770714)"
                data-idx="4">

        </circle>
        <circle fill="rgb(255, 168, 178)" cx="27.39" cy="27.39" r="6.573600000000001" fill-opacity="0.7454014589231068"
                transform="matrix(1.2345985174179077,0,0,1.2345985174179077,-3.084313467103698,216.03568689529254)"
                data-idx="6">

        </circle>
        <circle fill="rgb(255, 205, 211)" cx="27.39" cy="27.39" r="6.573600000000001" fill-opacity="0.8320893753414853"
                transform="matrix(1.1479105949401855,0,0,1.1479105949401855,-1.9446103574414337,271.9553768633227)"
                data-idx="8">

        </circle>
        <circle fill="rgb(255, 220, 224)" cx="27.39" cy="27.39" r="6.573600000000001" fill-opacity="1"
                transform="matrix(0.7244560122489929,0,0,0.7244560122489929,3.622632397179302,332.3026269803092)"
                data-idx="10">

        </circle>
        <circle fill="rgb(255, 175, 184)" cx="27.39" cy="27.39" r="6.573600000000001" fill-opacity="1"
                transform="matrix(0.7546232342720032,0,0,0.7546232342720032,3.226017161030825,386.68601529182916)"
                data-idx="12">

        </circle>
        <circle fill="rgb(255, 216, 220)" cx="27.39" cy="27.39" r="6.573600000000001" fill-opacity="0.9721079310397793"
                transform="matrix(1.0078920125961304,0,0,1.0078920125961304,-0.10375786168299328,438.13624000208654)"
                data-idx="14">

        </circle>
        <circle fill="rgb(255, 165, 175)" cx="27.39" cy="27.39" r="6.573600000000001" fill-opacity="0.608699245503912"
                transform="matrix(1.3713006973266602,0,0,1.3713006973266602,-4.881564742389855,488.13845002048856)"
                data-idx="16">

        </circle>
        <circle fill="rgb(255, 170, 179)" cx="27.39" cy="27.39" r="6.573600000000001" fill-opacity="0.9382103474113519"
                transform="matrix(1.0417896509170532,0,0,1.0417896509170532,-0.5494167125792728,547.2505686962037)"
                data-idx="18">

        </circle>
        <circle fill="rgb(255, 237, 238)" cx="27.39" cy="27.39" r="6.573600000000001" fill-opacity="0.6295024561186917"
                transform="matrix(1.3504976034164429,0,0,1.3504976034164429,-4.60806139950148,597.9719175433696)"
                data-idx="20">

        </circle>
        <circle fill="rgb(255, 239, 240)" cx="27.39" cy="27.39" r="6.573600000000001" fill-opacity="0.8139857286663743"
                transform="matrix(1.1660141944885254,0,0,1.1660141944885254,-2.1826223330112953,709.957403759518)"
                data-idx="22">

        </circle>
        <circle fill="rgb(255, 224, 227)" cx="27.39" cy="27.39" r="6.573600000000001" fill-opacity="0.8428175403816058"
                transform="matrix(1.1371824741363525,0,0,1.1371824741363525,-1.803565199319337,765.1164143729768)"
                data-idx="24">

        </circle>
        <circle fill="rgb(255, 233, 235)" cx="27.39" cy="27.39" r="6.573600000000001" fill-opacity="1"
                transform="matrix(0.7227534651756287,0,0,0.7227534651756287,3.6450156284094533,825.3450383258582)"
                data-idx="26">

        </circle>
        <circle fill="rgb(255, 203, 209)" cx="27.39" cy="27.39" r="6.573600000000001" fill-opacity="0.7060306779261492"
                transform="matrix(1.273969292640686,0,0,1.273969292640686,51.17807088598295,160.73807607397123)"
                data-idx="28">

        </circle>
        <circle fill="rgb(255, 174, 183)" cx="27.39" cy="27.39" r="6.573600000000001" fill-opacity="1"
                transform="matrix(0.7393337488174438,0,0,0.7393337488174438,58.207031588969244,277.3270190767622)"
                data-idx="30">

        </circle>
        <circle fill="rgb(255, 187, 195)" cx="27.39" cy="27.39" r="6.573600000000001" fill-opacity="1"
                transform="matrix(0.6583300828933716,0,0,0.6583300828933716,59.27200323424597,333.1720047601249)"
                data-idx="32">

        </circle>
        <circle fill="rgb(255, 220, 223)" cx="27.39" cy="27.39" r="6.573600000000001" fill-opacity="0.6947983178672914"
                transform="matrix(1.2852016687393188,0,0,1.2852016687393188,51.030396460261386,379.71041202422623)"
                data-idx="34">

        </circle>
        <circle fill="rgb(255, 239, 240)" cx="27.39" cy="27.39" r="6.573600000000001" fill-opacity="0.7198625665909315"
                transform="matrix(1.2601374387741089,0,0,1.2601374387741089,51.35992308202992,434.8199069077135)"
                data-idx="36">

        </circle>
        <circle fill="rgb(255, 161, 171)" cx="27.39" cy="27.39" r="6.573600000000001" fill-opacity="1"
                transform="matrix(0.8911323547363281,0,0,0.8911323547363281,56.2113045315964,494.451317654155)"
                data-idx="38">

        </circle>
        <circle fill="rgb(255, 212, 216)" cx="27.39" cy="27.39" r="6.573600000000001" fill-opacity="1"
                transform="matrix(0.8211777806282043,0,0,0.8211777806282043,57.131012033014315,550.1510391936588)"
                data-idx="40">

        </circle>
        <circle fill="rgb(255, 207, 212)" cx="27.39" cy="27.39" r="6.573600000000001" fill-opacity="1"
                transform="matrix(0.7283652424812317,0,0,0.7283652424812317,58.351235753213416,606.1512273608794)"
                data-idx="42">

        </circle>
        <circle fill="rgb(255, 228, 230)" cx="27.39" cy="27.39" r="6.573600000000001" fill-opacity="0.7431096133869244"
                transform="matrix(1.2368903160095215,0,0,1.2368903160095215,51.665557136404004,654.2455818556423)"
                data-idx="44">

        </circle>
        <circle fill="rgb(255, 240, 241)" cx="27.39" cy="27.39" r="6.573600000000001" fill-opacity="0.9894771760821092"
                transform="matrix(0.9905228614807129,0,0,0.9905228614807129,54.90459647003672,712.264578006902)"
                data-idx="46">

        </circle>
        <circle fill="rgb(255, 164, 174)" cx="27.39" cy="27.39" r="6.573600000000001" fill-opacity="0.5922617457794737"
                transform="matrix(1.3877382278442383,0,0,1.3877382278442383,49.68232803560841,761.8223274252568)"
                data-idx="48">

        </circle>
        <circle fill="rgb(255, 180, 189)" cx="27.39" cy="27.39" r="6.573600000000001" fill-opacity="0.9611949840838381"
                transform="matrix(1.0188050270080566,0,0,1.0188050270080566,54.53276774601045,931.0127444000632)"
                data-idx="50">

        </circle>
        <circle fill="rgb(255, 166, 176)" cx="27.39" cy="27.39" r="6.573600000000001" fill-opacity="0.6766261751280422"
                transform="matrix(1.3033738136291504,0,0,1.3033738136291504,105.57148540108983,105.57148540108983)"
                data-idx="52">

        </circle>
        <circle fill="rgb(255, 225, 228)" cx="27.39" cy="27.39" r="6.573600000000001" fill-opacity="1"
                transform="matrix(0.7564036250114441,0,0,0.7564036250114441,112.76260669850325,167.54261310719465)"
                data-idx="54">

        </circle>
        <circle fill="rgb(255, 208, 213)" cx="27.39" cy="27.39" r="6.573600000000001" fill-opacity="0.9091029678861484"
                transform="matrix(1.070897102355957,0,0,1.070897102355957,108.62790013897484,272.96788884747093)"
                data-idx="56">

        </circle>
        <circle fill="rgb(255, 234, 236)" cx="27.39" cy="27.39" r="6.573600000000001" fill-opacity="0.6470331552513104"
                transform="matrix(1.3329668045043945,0,0,1.3329668045043945,105.18241861997831,324.30242899595487)"
                data-idx="58">

        </circle>
        <circle fill="rgb(255, 235, 237)" cx="27.39" cy="27.39" r="6.573600000000001" fill-opacity="0.897302090360699"
                transform="matrix(1.082697868347168,0,0,1.082697868347168,108.47275094224005,382.372767726908)"
                data-idx="60">

        </circle>
        <circle fill="rgb(255, 168, 178)" cx="27.39" cy="27.39" r="6.573600000000001" fill-opacity="0.780296427505305"
                transform="matrix(1.199703574180603,0,0,1.199703574180603,106.9344601050974,435.61445278087865)"
                data-idx="62">

        </circle>
        <circle fill="rgb(255, 166, 176)" cx="27.39" cy="27.39" r="6.573600000000001" fill-opacity="0.5914156050496144"
                transform="matrix(1.3885843753814697,0,0,1.3885843753814697,104.45120275099748,487.9112170942592)"
                data-idx="64">

        </circle>
        <circle fill="rgb(255, 215, 219)" cx="27.39" cy="27.39" r="6.573600000000001" fill-opacity="1"
                transform="matrix(0.9147165417671204,0,0,0.9147165417671204,110.68124100650704,548.9212236114874)"
                data-idx="66">

        </circle>
        <circle fill="rgb(255, 206, 211)" cx="27.39" cy="27.39" r="6.573600000000001" fill-opacity="0.7222225972075531"
                transform="matrix(1.257777452468872,0,0,1.257777452468872,106.1709460259492,599.190919780832)"
                data-idx="68">

        </circle>
        <circle fill="rgb(255, 232, 234)" cx="27.39" cy="27.39" r="6.573600000000001" fill-opacity="1"
                transform="matrix(0.8270376920700073,0,0,0.8270376920700073,111.833969286551,659.6339418207307)"
                data-idx="70">

        </circle>
        <circle fill="rgb(255, 186, 193)" cx="27.39" cy="27.39" r="6.573600000000001" fill-opacity="0.8501898968421804"
                transform="matrix(1.129810094833374,0,0,1.129810094833374,107.85336163609622,710.4333710965454)"
                data-idx="72">

        </circle>
        <circle fill="rgb(255, 205, 210)" cx="27.39" cy="27.39" r="6.573600000000001" fill-opacity="0.7929012747214139"
                transform="matrix(1.187098741531372,0,0,1.187098741531372,161.8801732345794,107.10017445528251)"
                data-idx="74">

        </circle>
        <circle fill="rgb(255, 192, 199)" cx="27.39" cy="27.39" r="6.573600000000001" fill-opacity="1"
                transform="matrix(0.7442827224731445,0,0,0.7442827224731445,167.7019724663669,222.48197124566377)"
                data-idx="76">

        </circle>
        <circle fill="rgb(255, 226, 228)" cx="27.39" cy="27.39" r="6.573600000000001" fill-opacity="1"
                transform="matrix(0.9025291204452515,0,0,0.9025291204452515,165.62147128832783,275.18148410571064)"
                data-idx="78">

        </circle>
        <circle fill="rgb(255, 161, 172)" cx="27.39" cy="27.39" r="6.573600000000001" fill-opacity="0.676561798274373"
                transform="matrix(1.3034381866455078,0,0,1.3034381866455078,160.3506337718445,324.69063010973514)"
                data-idx="80">

        </circle>
        <circle fill="rgb(255, 223, 226)" cx="27.39" cy="27.39" r="6.573600000000001" fill-opacity="1"
                transform="matrix(0.6408748030662537,0,0,0.6408748030662537,169.061498540233,388.1814936574205)"
                data-idx="82">

        </circle>
        <circle fill="rgb(255, 170, 179)" cx="27.39" cy="27.39" r="6.573600000000001" fill-opacity="0.9502050040385064"
                transform="matrix(1.0297950506210327,0,0,1.0297950506210327,163.9482823652919,437.8482762617763)"
                data-idx="84">

        </circle>
        <circle fill="rgb(255, 202, 208)" cx="27.39" cy="27.39" r="6.573600000000001" fill-opacity="1"
                transform="matrix(0.804996907711029,0,0,0.804996907711029,166.90373756398907,495.5837302397703)"
                data-idx="86">

        </circle>
        <circle fill="rgb(255, 239, 240)" cx="27.39" cy="27.39" r="6.573600000000001" fill-opacity="1"
                transform="matrix(0.6300305128097534,0,0,0.6300305128097534,169.20405836837188,552.6640345646609)"
                data-idx="88">

        </circle>
        <circle fill="rgb(255, 216, 220)" cx="27.39" cy="27.39" r="6.573600000000001" fill-opacity="0.7120829234508512"
                transform="matrix(1.2679170370101929,0,0,1.2679170370101929,160.81764084355234,599.0576158191383)"
                data-idx="90">

        </circle>
        <circle fill="rgb(255, 201, 207)" cx="27.39" cy="27.39" r="6.573600000000001" fill-opacity="0.7455948137945245"
                transform="matrix(1.2344051599502563,0,0,1.2344051599502563,161.2582256501015,654.2782146637734)"
                data-idx="92">

        </circle>
        <circle fill="rgb(255, 221, 224)" cx="27.39" cy="27.39" r="6.573600000000001" fill-opacity="1"
                transform="matrix(0.9317024350166321,0,0,0.9317024350166321,165.2379251321102,713.0378976662898)"
                data-idx="94">

        </circle>
        <circle fill="rgb(255, 192, 199)" cx="27.39" cy="27.39" r="6.573600000000001" fill-opacity="0.8681612530429448"
                transform="matrix(1.111838698387146,0,0,1.111838698387146,162.86963835807035,765.449640189125)"
                data-idx="96">

        </circle>
        <circle fill="rgb(255, 196, 203)" cx="27.39" cy="27.39" r="6.573600000000001" fill-opacity="1"
                transform="matrix(0.736082911491394,0,0,0.736082911491394,222.58976756458821,113.02977000599446)"
                data-idx="98">

        </circle>
        <circle fill="rgb(255, 228, 230)" cx="27.39" cy="27.39" r="6.573600000000001" fill-opacity="1"
                transform="matrix(0.6145762801170349,0,0,0.6145762801170349,224.1872401064224,169.40724132712552)"
                data-idx="100">

        </circle>
        <circle fill="rgb(255, 194, 201)" cx="27.39" cy="27.39" r="6.573600000000001" fill-opacity="0.9987021478709004"
                transform="matrix(0.9812977910041809,0,0,0.9812977910041809,219.3658846013348,219.3658846013348)"
                data-idx="102">

        </circle>
        <circle fill="rgb(255, 173, 182)" cx="27.39" cy="27.39" r="6.573600000000001" fill-opacity="0.6228258270735798"
                transform="matrix(1.3571741580963135,0,0,1.3571741580963135,214.42415281233684,269.2041515916337)"
                data-idx="104">

        </circle>
        <circle fill="rgb(255, 186, 193)" cx="27.39" cy="27.39" r="6.573600000000001" fill-opacity="0.6278357759459907"
                transform="matrix(1.3521642684936523,0,0,1.3521642684936523,214.49002954728985,324.05001184709454)"
                data-idx="106">

        </circle>
        <circle fill="rgb(255, 212, 216)" cx="27.39" cy="27.39" r="6.573600000000001" fill-opacity="0.8340054543021724"
                transform="matrix(1.1459945440292358,0,0,1.1459945440292358,217.20057719570593,381.54057353359656)"
                data-idx="108">

        </circle>
        <circle fill="rgb(255, 222, 225)" cx="27.39" cy="27.39" r="6.573600000000001" fill-opacity="0.7160638017251686"
                transform="matrix(1.263936161994934,0,0,1.263936161994934,215.6499771253567,434.7699722425442)"
                data-idx="110">

        </circle>
        <circle fill="rgb(255, 195, 202)" cx="27.39" cy="27.39" r="6.573600000000001" fill-opacity="0.9637205403900917"
                transform="matrix(1.0162794589996338,0,0,1.0162794589996338,218.90596390509768,492.80595780158205)"
                data-idx="112">

        </circle>
        <circle fill="rgb(255, 205, 210)" cx="27.39" cy="27.39" r="6.573600000000001" fill-opacity="1"
                transform="matrix(0.9548752903938293,0,0,0.9548752903938293,219.71326634236704,548.3932590181482)"
                data-idx="114">

        </circle>
        <circle fill="rgb(255, 234, 235)" cx="27.39" cy="27.39" r="6.573600000000001" fill-opacity="0.8451627833603432"
                transform="matrix(1.1348371505737305,0,0,1.1348371505737305,217.34727043428848,600.8072466305775)"
                data-idx="116">

        </circle>
        <circle fill="rgb(255, 159, 170)" cx="27.39" cy="27.39" r="6.573600000000001" fill-opacity="1"
                transform="matrix(0.7549176812171936,0,0,0.7549176812171936,222.34214551134306,660.5821510045071)"
                data-idx="118">

        </circle>
        <circle fill="rgb(255, 208, 213)" cx="27.39" cy="27.39" r="6.573600000000001" fill-opacity="0.9585488031775184"
                transform="matrix(1.0214512348175049,0,0,1.0214512348175049,218.83797013850494,711.8579591521768)"
                data-idx="120">

        </circle>
        <circle fill="rgb(255, 171, 180)" cx="27.39" cy="27.39" r="6.573600000000001" fill-opacity="0.600165260232528"
                transform="matrix(1.379834771156311,0,0,1.379834771156311,214.12623471168138,816.7062518015251)"
                data-idx="122">

        </circle>
        <circle fill="rgb(255, 224, 227)" cx="27.39" cy="27.39" r="6.573600000000001" fill-opacity="1"
                transform="matrix(0.8613707423210144,0,0,0.8613707423210144,275.7225811426271,56.60258602543962)"
                data-idx="124">

        </circle>
        <circle fill="rgb(255, 209, 214)" cx="27.39" cy="27.39" r="6.573600000000001" fill-opacity="1"
                transform="matrix(0.9761278033256531,0,0,0.9761278033256531,274.2138501339229,109.87385379603228)"
                data-idx="126">

        </circle>
        <circle fill="rgb(255, 220, 224)" cx="27.39" cy="27.39" r="6.573600000000001" fill-opacity="0.866349718250609"
                transform="matrix(1.1136503219604492,0,0,1.1136503219604492,272.4058099140193,162.84581235542555)"
                data-idx="128">

        </circle>
        <circle fill="rgb(255, 190, 197)" cx="27.39" cy="27.39" r="6.573600000000001" fill-opacity="1"
                transform="matrix(0.6191195249557495,0,0,0.6191195249557495,278.907511962091,333.6875107413879)"
                data-idx="130">

        </circle>
        <circle fill="rgb(255, 179, 188)" cx="27.39" cy="27.39" r="6.573600000000001" fill-opacity="1"
                transform="matrix(0.8451638221740723,0,0,0.8451638221740723,275.93565581514713,385.4956533737409)"
                data-idx="132">

        </circle>
        <circle fill="rgb(255, 163, 174)" cx="27.39" cy="27.39" r="6.573600000000001" fill-opacity="0.8638735355318552"
                transform="matrix(1.1161264181137085,0,0,1.1161264181137085,272.3732671796628,436.7132635175534)"
                data-idx="134">

        </circle>
        <circle fill="rgb(255, 163, 174)" cx="27.39" cy="27.39" r="6.573600000000001" fill-opacity="0.7874966658238827"
                transform="matrix(1.1925033330917358,0,0,1.1925033330917358,271.3691207101523,490.4891158273398)"
                data-idx="136">

        </circle>
        <circle fill="rgb(255, 198, 204)" cx="27.39" cy="27.39" r="6.573600000000001" fill-opacity="1"
                transform="matrix(0.6649149656295776,0,0,0.6649149656295776,278.3054151535297,552.205409050014)"
                data-idx="138">

        </circle>
        <circle fill="rgb(255, 219, 223)" cx="27.39" cy="27.39" r="6.573600000000001" fill-opacity="1"
                transform="matrix(0.6787438988685608,0,0,0.6787438988685608,278.1236279328869,606.80359009109)"
                data-idx="140">

        </circle>
        <circle fill="rgb(255, 159, 170)" cx="27.39" cy="27.39" r="6.573600000000001" fill-opacity="1"
                transform="matrix(0.8153419494628906,0,0,0.8153419494628906,276.3277377939703,659.7877292490484)"
                data-idx="142">

        </circle>
        <circle fill="rgb(255, 161, 172)" cx="27.39" cy="27.39" r="6.573600000000001" fill-opacity="1"
                transform="matrix(0.756450891494751,0,0,0.756450891494751,277.10197952027215,715.3419697546472)"
                data-idx="144">

        </circle>
        <circle fill="rgb(255, 224, 227)" cx="27.39" cy="27.39" r="6.573600000000001" fill-opacity="1"
                transform="matrix(0.8792321681976318,0,0,0.8792321681976318,275.4877661537355,768.5077551674074)"
                data-idx="146">

        </circle>
        <circle fill="rgb(255, 171, 180)" cx="27.39" cy="27.39" r="6.573600000000001" fill-opacity="1"
                transform="matrix(0.7426069378852844,0,0,0.7426069378852844,332.06398632842894,167.72400524932738)"
                data-idx="148">

        </circle>
        <circle fill="rgb(255, 181, 189)" cx="27.39" cy="27.39" r="6.573600000000001" fill-opacity="0.9669321671504805"
                transform="matrix(1.0130678415298462,0,0,1.0130678415298462,328.50819151576036,273.7281927364635)"
                data-idx="150">

        </circle>
        <circle fill="rgb(255, 240, 241)" cx="27.39" cy="27.39" r="6.573600000000001" fill-opacity="1"
                transform="matrix(0.6195032596588135,0,0,0.6195032596588135,333.6824552640303,333.6824552640303)"
                data-idx="152">

        </circle>
        <circle fill="rgb(255, 224, 227)" cx="27.39" cy="27.39" r="6.573600000000001" fill-opacity="0.714889006790115"
                transform="matrix(1.265110969543457,0,0,1.265110969543457,325.1945310220008,379.97452980129765)"
                data-idx="154">

        </circle>
        <circle fill="rgb(255, 183, 191)" cx="27.39" cy="27.39" r="6.573600000000001" fill-opacity="0.6350929851896736"
                transform="matrix(1.3449070453643799,0,0,1.3449070453643799,324.1454474199047,433.70544497849846)"
                data-idx="156">

        </circle>
        <circle fill="rgb(255, 227, 229)" cx="27.39" cy="27.39" r="6.573600000000001" fill-opacity="0.6261453206374004"
                transform="matrix(1.3538546562194824,0,0,1.3538546562194824,324.0277915162146,488.36778785410525)"
                data-idx="158">

        </circle>
        <circle fill="rgb(255, 223, 226)" cx="27.39" cy="27.39" r="6.573600000000001" fill-opacity="1"
                transform="matrix(0.9650513529777527,0,0,0.9650513529777527,329.1394760065879,548.2594711237755)"
                data-idx="160">

        </circle>
        <circle fill="rgb(255, 233, 235)" cx="27.39" cy="27.39" r="6.573600000000001" fill-opacity="1"
                transform="matrix(0.949432909488678,0,0,0.949432909488678,329.34480653663655,603.244830950699)"
                data-idx="162">

        </circle>
        <circle fill="rgb(255, 225, 228)" cx="27.39" cy="27.39" r="6.573600000000001" fill-opacity="1"
                transform="matrix(0.9320681691169739,0,0,0.9320681691169739,329.57312165050354,713.0331131055816)"
                data-idx="164">

        </circle>
        <circle fill="rgb(255, 177, 185)" cx="27.39" cy="27.39" r="6.573600000000001" fill-opacity="1"
                transform="matrix(0.959374189376831,0,0,0.959374189376831,329.21411840623364,767.4541391581868)"
                data-idx="166">

        </circle>
        <circle fill="rgb(255, 229, 231)" cx="27.39" cy="27.39" r="6.573600000000001" fill-opacity="1"
                transform="matrix(0.8060989379882812,0,0,0.8060989379882812,386.00925570913387,112.10925418325496)"
                data-idx="168">

        </circle>
        <circle fill="rgb(255, 168, 178)" cx="27.39" cy="27.39" r="6.573600000000001" fill-opacity="0.899390945096155"
                transform="matrix(1.0806090831756592,0,0,1.0806090831756592,382.40023147488205,163.28022109890549)"
                data-idx="170">

        </circle>
        <circle fill="rgb(255, 216, 220)" cx="27.39" cy="27.39" r="6.573600000000001" fill-opacity="0.630541223824896"
                transform="matrix(1.3494586944580078,0,0,1.3494586944580078,378.86558773541947,214.52559139752884)"
                data-idx="172">

        </circle>
        <circle fill="rgb(255, 186, 194)" cx="27.39" cy="27.39" r="6.573600000000001" fill-opacity="0.6447808739656669"
                transform="matrix(1.335219144821167,0,0,1.335219144821167,379.05282076597064,269.49279268979876)"
                data-idx="174">

        </circle>
        <circle fill="rgb(255, 200, 206)" cx="27.39" cy="27.39" r="6.573600000000001" fill-opacity="0.8900855963293688"
                transform="matrix(1.0899144411087036,0,0,1.0899144411087036,382.2778740315508,327.49787525225395)"
                data-idx="176">

        </circle>
        <circle fill="rgb(255, 200, 206)" cx="27.39" cy="27.39" r="6.573600000000001" fill-opacity="1"
                transform="matrix(0.8129553198814392,0,0,0.8129553198814392,385.9191101354963,385.9191101354963)"
                data-idx="178">

        </circle>
        <circle fill="rgb(255, 220, 223)" cx="27.39" cy="27.39" r="6.573600000000001" fill-opacity="1"
                transform="matrix(0.778144121170044,0,0,0.778144121170044,386.37679634327765,441.1567951225745)"
                data-idx="180">

        </circle>
        <circle fill="rgb(255, 224, 227)" cx="27.39" cy="27.39" r="6.573600000000001" fill-opacity="0.6880150022758116"
                transform="matrix(1.291985034942627,0,0,1.291985034942627,379.62120419018584,489.1812017487796)"
                data-idx="182">

        </circle>
        <circle fill="rgb(255, 204, 209)" cx="27.39" cy="27.39" r="6.573600000000001" fill-opacity="1"
                transform="matrix(0.6819646954536438,0,0,0.6819646954536438,387.64127406442486,551.9812704023154)"
                data-idx="184">

        </circle>
        <circle fill="rgb(255, 193, 200)" cx="27.39" cy="27.39" r="6.573600000000001" fill-opacity="1"
                transform="matrix(0.8321529030799866,0,0,0.8321529030799866,385.6667227205799,604.7867178377674)"
                data-idx="186">

        </circle>
        <circle fill="rgb(255, 166, 176)" cx="27.39" cy="27.39" r="6.573600000000001" fill-opacity="0.9094021324129664"
                transform="matrix(1.0705978870391846,0,0,1.0705978870391846,382.5318369703939,656.4318613844564)"
                data-idx="188">

        </circle>
        <circle fill="rgb(255, 171, 180)" cx="27.39" cy="27.39" r="6.573600000000001" fill-opacity="0.9080082418874253"
                transform="matrix(1.0719918012619019,0,0,1.0719918012619019,382.5135186626793,711.1935113384606)"
                data-idx="190">

        </circle>
        <circle fill="rgb(255, 227, 230)" cx="27.39" cy="27.39" r="6.573600000000001" fill-opacity="1"
                transform="matrix(0.7758833169937134,0,0,0.7758833169937134,386.40652002574063,824.6464797425375)"
                data-idx="192">

        </circle>
        <circle fill="rgb(255, 210, 215)" cx="27.39" cy="27.39" r="6.573600000000001" fill-opacity="0.749461363692087"
                transform="matrix(1.2305386066436768,0,0,1.2305386066436768,435.20905786326625,161.30906396678188)"
                data-idx="194">

        </circle>
        <circle fill="rgb(255, 189, 197)" cx="27.39" cy="27.39" r="6.573600000000001" fill-opacity="1"
                transform="matrix(0.8785331845283508,0,0,0.8785331845283508,439.8369349672642,220.71695510886576)"
                data-idx="196">

        </circle>
        <circle fill="rgb(255, 207, 212)" cx="27.39" cy="27.39" r="6.573600000000001" fill-opacity="1"
                transform="matrix(0.922440767288208,0,0,0.922440767288208,439.2596993530126,274.91967249754384)"
                data-idx="198">

        </circle>
        <circle fill="rgb(255, 215, 219)" cx="27.39" cy="27.39" r="6.573600000000001" fill-opacity="0.7123631281962592"
                transform="matrix(1.2676368951797485,0,0,1.2676368951797485,434.72132259379816,325.1613250352044)"
                data-idx="200">

        </circle>
        <circle fill="rgb(255, 223, 226)" cx="27.39" cy="27.39" r="6.573600000000001" fill-opacity="0.8033794506829701"
                transform="matrix(1.176620602607727,0,0,1.176620602607727,435.91792439698577,381.1379256176889)"
                data-idx="202">

        </circle>
        <circle fill="rgb(255, 166, 176)" cx="27.39" cy="27.39" r="6.573600000000001" fill-opacity="0.7863764346508615"
                transform="matrix(1.1936235427856445,0,0,1.1936235427856445,435.69439850147774,435.69439850147774)"
                data-idx="204">

        </circle>
        <circle fill="rgb(255, 226, 229)" cx="27.39" cy="27.39" r="6.573600000000001" fill-opacity="0.7446580787302708"
                transform="matrix(1.2353419065475464,0,0,1.2353419065475464,435.14592771612377,489.92592649542064)"
                data-idx="206">

        </circle>
        <circle fill="rgb(255, 220, 224)" cx="27.39" cy="27.39" r="6.573600000000001" fill-opacity="0.6744389065060221"
                transform="matrix(1.3055610656738281,0,0,1.3055610656738281,434.22272617793715,543.782754254109)"
                data-idx="208">

        </circle>
        <circle fill="rgb(255, 160, 171)" cx="27.39" cy="27.39" r="6.573600000000001" fill-opacity="0.7785258137621178"
                transform="matrix(1.2014741897583008,0,0,1.2014741897583008,435.5911862653784,599.9311520856909)"
                data-idx="210">

        </circle>
        <circle fill="rgb(255, 185, 193)" cx="27.39" cy="27.39" r="6.573600000000001" fill-opacity="1"
                transform="matrix(0.7165139317512512,0,0,0.7165139317512512,441.9670481739684,661.0870432911559)"
                data-idx="212">

        </circle>
        <circle fill="rgb(255, 226, 229)" cx="27.39" cy="27.39" r="6.573600000000001" fill-opacity="0.6802746775378672"
                transform="matrix(1.2997252941131592,0,0,1.2997252941131592,434.299448800494,708.1994732145565)"
                data-idx="214">

        </circle>
        <circle fill="rgb(255, 233, 235)" cx="27.39" cy="27.39" r="6.573600000000001" fill-opacity="1"
                transform="matrix(0.6499248147010803,0,0,0.6499248147010803,442.84252252214,881.0825127565149)"
                data-idx="216">

        </circle>
        <circle fill="rgb(255, 193, 200)" cx="27.39" cy="27.39" r="6.573600000000001" fill-opacity="0.7037996689947612"
                transform="matrix(1.276200294494629,0,0,1.276200294494629,489.3887545988773,51.14873766162145)"
                data-idx="218">

        </circle>
        <circle fill="rgb(255, 179, 188)" cx="27.39" cy="27.39" r="6.573600000000001" fill-opacity="1"
                transform="matrix(0.8634244203567505,0,0,0.8634244203567505,494.81558743272683,111.35558834825417)"
                data-idx="220">

        </circle>
        <circle fill="rgb(255, 230, 232)" cx="27.39" cy="27.39" r="6.573600000000001" fill-opacity="0.7805329799901992"
                transform="matrix(1.1994670629501343,0,0,1.1994670629501343,490.39756268684084,216.49756879035647)"
                data-idx="222">

        </circle>
        <circle fill="rgb(255, 204, 210)" cx="27.39" cy="27.39" r="6.573600000000001" fill-opacity="0.9880363945764232"
                transform="matrix(0.9919635653495789,0,0,0.9919635653495789,493.1256518298093,328.7856554919187)"
                data-idx="224">

        </circle>
        <circle fill="rgb(255, 221, 225)" cx="27.39" cy="27.39" r="6.573600000000001" fill-opacity="1"
                transform="matrix(0.6687503457069397,0,0,0.6687503457069397,497.37502101499564,387.81499293882376)"
                data-idx="226">

        </circle>
        <circle fill="rgb(255, 199, 205)" cx="27.39" cy="27.39" r="6.573600000000001" fill-opacity="0.6748733670873153"
                transform="matrix(1.305126667022705,0,0,1.305126667022705,489.0084491724706,434.2284503931737)"
                data-idx="228">

        </circle>
        <circle fill="rgb(255, 205, 210)" cx="27.39" cy="27.39" r="6.573600000000001" fill-opacity="0.6176291603742468"
                transform="matrix(1.3623708486557007,0,0,1.3623708486557007,488.2558365747976,488.2558365747976)"
                data-idx="230">

        </circle>
        <circle fill="rgb(255, 237, 238)" cx="27.39" cy="27.39" r="6.573600000000001" fill-opacity="1"
                transform="matrix(0.8895183205604553,0,0,0.8895183205604553,494.4725172685249,549.2525160478217)"
                data-idx="232">

        </circle>
        <circle fill="rgb(255, 184, 192)" cx="27.39" cy="27.39" r="6.573600000000001" fill-opacity="1"
                transform="matrix(0.8022366762161255,0,0,0.8022366762161255,495.62003285599997,605.1800304145937)"
                data-idx="234">

        </circle>
        <circle fill="rgb(255, 204, 210)" cx="27.39" cy="27.39" r="6.573600000000001" fill-opacity="1"
                transform="matrix(0.8983797430992126,0,0,0.8983797430992126,494.3560077663196,658.6960346217884)"
                data-idx="236">

        </circle>
        <circle fill="rgb(255, 202, 208)" cx="27.39" cy="27.39" r="6.573600000000001" fill-opacity="0.7573003715524942"
                transform="matrix(1.2226996421813965,0,0,1.2226996421813965,490.0921310473582,763.9921249438426)"
                data-idx="238">

        </circle>
        <circle fill="rgb(255, 170, 179)" cx="27.39" cy="27.39" r="6.573600000000001" fill-opacity="1"
                transform="matrix(0.6137894988059998,0,0,0.6137894988059998,552.877608014755,114.63758726280179)"
                data-idx="240">

        </circle>
        <circle fill="rgb(255, 234, 236)" cx="27.39" cy="27.39" r="6.573600000000001" fill-opacity="1"
                transform="matrix(0.8506125211715698,0,0,0.8506125211715698,549.7640045081888,166.30402831189974)"
                data-idx="242">

        </circle>
        <circle fill="rgb(255, 189, 196)" cx="27.39" cy="27.39" r="6.573600000000001" fill-opacity="1"
                transform="matrix(0.7204694151878357,0,0,0.7204694151878357,551.4750429908113,332.35504787362373)"
                data-idx="244">

        </circle>
        <circle fill="rgb(255, 218, 222)" cx="27.39" cy="27.39" r="6.573600000000001" fill-opacity="1"
                transform="matrix(0.6424291133880615,0,0,0.6424291133880615,552.5010491925948,388.16105285470417)"
                data-idx="246">

        </circle>
        <circle fill="rgb(255, 175, 184)" cx="27.39" cy="27.39" r="6.573600000000001" fill-opacity="1"
                transform="matrix(0.9228495955467224,0,0,0.9228495955467224,548.8142933737886,439.2543263327729)"
                data-idx="248">

        </circle>
        <circle fill="rgb(255, 239, 240)" cx="27.39" cy="27.39" r="6.573600000000001" fill-opacity="1"
                transform="matrix(0.9622071981430054,0,0,0.9622071981430054,548.2968442172845,493.51687595556575)"
                data-idx="250">

        </circle>
        <circle fill="rgb(255, 238, 240)" cx="27.39" cy="27.39" r="6.573600000000001" fill-opacity="1"
                transform="matrix(0.7443699240684509,0,0,0.7443699240684509,551.160826117859,551.160826117859)"
                data-idx="252">

        </circle>
        <circle fill="rgb(255, 183, 191)" cx="27.39" cy="27.39" r="6.573600000000001" fill-opacity="0.7026051462494716"
                transform="matrix(1.2773948907852173,0,0,1.2773948907852173,544.1530270450627,598.9330563419377)"
                data-idx="254">

        </circle>
        <circle fill="rgb(255, 234, 236)" cx="27.39" cy="27.39" r="6.573600000000001" fill-opacity="0.7478239921903769"
                transform="matrix(1.2321760654449463,0,0,1.2321760654449463,544.7475187179082,654.3075162765019)"
                data-idx="256">

        </circle>
        <circle fill="rgb(255, 211, 216)" cx="27.39" cy="27.39" r="6.573600000000001" fill-opacity="0.8890213033497678"
                transform="matrix(1.090978741645813,0,0,1.090978741645813,546.6038550406585,710.9438818961272)"
                data-idx="258">

        </circle>
        <circle fill="rgb(255, 201, 207)" cx="27.39" cy="27.39" r="6.573600000000001" fill-opacity="0.6170160561577531"
                transform="matrix(1.3629839420318604,0,0,1.3629839420318604,543.0277768032777,762.1477719204652)"
                data-idx="260">

        </circle>
        <circle fill="rgb(255, 175, 184)" cx="27.39" cy="27.39" r="6.573600000000001" fill-opacity="0.6491222009358681"
                transform="matrix(1.3308777809143066,0,0,1.3308777809143066,598.2298576901035,105.20988393522066)"
                data-idx="262">

        </circle>
        <circle fill="rgb(255, 235, 237)" cx="27.39" cy="27.39" r="6.573600000000001" fill-opacity="0.9917318864463228"
                transform="matrix(0.9882681369781494,0,0,0.9882681369781494,602.7342336478507,274.05424097206946)"
                data-idx="264">

        </circle>
        <circle fill="rgb(255, 188, 195)" cx="27.39" cy="27.39" r="6.573600000000001" fill-opacity="0.7555987618680189"
                transform="matrix(1.2244012355804443,0,0,1.2244012355804443,599.6297430607262,325.72974916424187)"
                data-idx="266">

        </circle>
        <circle fill="rgb(255, 172, 182)" cx="27.39" cy="27.39" r="6.573600000000001" fill-opacity="1"
                transform="matrix(0.7793077230453491,0,0,0.7793077230453491,605.4815130128612,386.3614873780956)"
                data-idx="268">

        </circle>
        <circle fill="rgb(255, 213, 217)" cx="27.39" cy="27.39" r="6.573600000000001" fill-opacity="0.8824019958261977"
                transform="matrix(1.0975980758666992,0,0,1.0975980758666992,601.2968534169149,436.9568570790243)"
                data-idx="270">

        </circle>
        <circle fill="rgb(255, 205, 211)" cx="27.39" cy="27.39" r="6.573600000000001" fill-opacity="1"
                transform="matrix(0.7315061092376709,0,0,0.7315061092376709,606.1099506769367,496.54995311834296)"
                data-idx="272">

        </circle>
        <circle fill="rgb(255, 169, 179)" cx="27.39" cy="27.39" r="6.573600000000001" fill-opacity="0.8166496765533939"
                transform="matrix(1.1633503437042236,0,0,1.1633503437042236,600.4323733446356,545.6524050829169)"
                data-idx="274">

        </circle>
        <circle fill="rgb(255, 237, 239)" cx="27.39" cy="27.39" r="6.573600000000001" fill-opacity="0.7950733080465358"
                transform="matrix(1.1849267482757568,0,0,1.1849267482757568,600.1487540275591,600.1487540275591)"
                data-idx="276">

        </circle>
        <circle fill="rgb(255, 175, 184)" cx="27.39" cy="27.39" r="6.573600000000001" fill-opacity="0.6895761834983147"
                transform="matrix(1.29042387008667,0,0,1.29042387008667,598.7617156866322,708.321713245226)"
                data-idx="278">

        </circle>
        <circle fill="rgb(255, 193, 200)" cx="27.39" cy="27.39" r="6.573600000000001" fill-opacity="0.7613567508182668"
                transform="matrix(1.2186431884765625,0,0,1.2186431884765625,599.7054359549802,764.045462810449)"
                data-idx="280">

        </circle>
        <circle fill="rgb(255, 232, 234)" cx="27.39" cy="27.39" r="6.573600000000001" fill-opacity="0.8464628087471504"
                transform="matrix(1.1335371732711792,0,0,1.1335371732711792,600.8243370830086,819.9443322001961)"
                data-idx="282">

        </circle>
        <circle fill="rgb(255, 205, 211)" cx="27.39" cy="27.39" r="6.573600000000001" fill-opacity="0.6172804127598472"
                transform="matrix(1.3627196550369263,0,0,1.3627196550369263,597.8112524014688,871.7112768155313)"
                data-idx="284">

        </circle>
        <circle fill="rgb(255, 174, 183)" cx="27.39" cy="27.39" r="6.573600000000001" fill-opacity="1"
                transform="matrix(0.6370131969451904,0,0,0.6370131969451904,662.1322323146112,59.55226100113464)"
                data-idx="286">

        </circle>
        <circle fill="rgb(255, 181, 189)" cx="27.39" cy="27.39" r="6.573600000000001" fill-opacity="1"
                transform="matrix(0.762912929058075,0,0,0.762912929058075,660.4770421752453,222.23703668208117)"
                data-idx="288">

        </circle>
        <circle fill="rgb(255, 203, 208)" cx="27.39" cy="27.39" r="6.573600000000001" fill-opacity="1"
                transform="matrix(0.9416995644569397,0,0,0.9416995644569397,658.1264774130468,274.66648595796875)"
                data-idx="290">

        </circle>
        <circle fill="rgb(255, 232, 234)" cx="27.39" cy="27.39" r="6.573600000000001" fill-opacity="0.9677262291050246"
                transform="matrix(1.0122737884521484,0,0,1.0122737884521484,657.1986224845659,328.5186298087847)"
                data-idx="292">

        </circle>
        <circle fill="rgb(255, 237, 238)" cx="27.39" cy="27.39" r="6.573600000000001" fill-opacity="0.9040045748248868"
                transform="matrix(1.0759954452514648,0,0,1.0759954452514648,656.3608575358512,382.46086363936683)"
                data-idx="294">

        </circle>
        <circle fill="rgb(255, 230, 232)" cx="27.39" cy="27.39" r="6.573600000000001" fill-opacity="0.6931631073257618"
                transform="matrix(1.286836862564087,0,0,1.286836862564087,653.5888841058079,434.4688889886204)"
                data-idx="296">

        </circle>
        <circle fill="rgb(255, 177, 185)" cx="27.39" cy="27.39" r="6.573600000000001" fill-opacity="0.7289971198602314"
                transform="matrix(1.2510029077529907,0,0,1.2510029077529907,654.060037887663,489.7200110321943)"
                data-idx="298">

        </circle>
        <circle fill="rgb(255, 176, 185)" cx="27.39" cy="27.39" r="6.573600000000001" fill-opacity="1"
                transform="matrix(0.6801375150680542,0,0,0.6801375150680542,661.5653030393358,552.0053054807421)"
                data-idx="300">

        </circle>
        <circle fill="rgb(255, 226, 228)" cx="27.39" cy="27.39" r="6.573600000000001" fill-opacity="1"
                transform="matrix(0.71865314245224,0,0,0.71865314245224,661.0589428901494,606.2789135932744)"
                data-idx="302">

        </circle>
        <circle fill="rgb(255, 222, 225)" cx="27.39" cy="27.39" r="6.573600000000001" fill-opacity="0.7262159428338413"
                transform="matrix(1.2537840604782104,0,0,1.2537840604782104,654.023445155747,654.023445155747)"
                data-idx="304">

        </circle>
        <circle fill="rgb(255, 209, 214)" cx="27.39" cy="27.39" r="6.573600000000001" fill-opacity="0.9297853151103617"
                transform="matrix(1.0502146482467651,0,0,1.0502146482467651,656.6998248071876,821.0397906275001)"
                data-idx="306">

        </circle>
        <circle fill="rgb(255, 224, 227)" cx="27.39" cy="27.39" r="6.573600000000001" fill-opacity="1"
                transform="matrix(0.7583150267601013,0,0,0.7583150267601013,715.3175086441611,167.5174750748251)"
                data-idx="308">

        </circle>
        <circle fill="rgb(255, 229, 232)" cx="27.39" cy="27.39" r="6.573600000000001" fill-opacity="0.6990988684955362"
                transform="matrix(1.2809011936187744,0,0,1.2809011936187744,708.4469335798096,270.20694334543464)"
                data-idx="310">

        </circle>
        <circle fill="rgb(255, 235, 237)" cx="27.39" cy="27.39" r="6.573600000000001" fill-opacity="1"
                transform="matrix(0.6309061646461487,0,0,0.6309061646461487,716.9925679306921,333.5325459580359)"
                data-idx="312">

        </circle>
        <circle fill="rgb(255, 224, 227)" cx="27.39" cy="27.39" r="6.573600000000001" fill-opacity="1"
                transform="matrix(0.7588484287261963,0,0,0.7588484287261963,715.3104622340327,386.63046955825143)"
                data-idx="314">

        </circle>
        <circle fill="rgb(255, 173, 182)" cx="27.39" cy="27.39" r="6.573600000000001" fill-opacity="0.9828179393756704"
                transform="matrix(0.9971821308135986,0,0,0.9971821308135986,712.1770404282136,438.2770465317292)"
                data-idx="316">

        </circle>
        <circle fill="rgb(255, 218, 222)" cx="27.39" cy="27.39" r="6.573600000000001" fill-opacity="0.8778420764179251"
                transform="matrix(1.1021579504013062,0,0,1.1021579504013062,710.7969079233911,491.67691280620363)"
                data-idx="318">

        </circle>
        <circle fill="rgb(255, 167, 177)" cx="27.39" cy="27.39" r="6.573600000000001" fill-opacity="0.8334213686964864"
                transform="matrix(1.1465786695480347,0,0,1.1465786695480347,710.2129117047097,545.8728848492409)"
                data-idx="320">

        </circle>
        <circle fill="rgb(255, 174, 183)" cx="27.39" cy="27.39" r="6.573600000000001" fill-opacity="1"
                transform="matrix(0.748572826385498,0,0,0.748572826385498,715.445575849651,605.8855782910573)"
                data-idx="322">

        </circle>
        <circle fill="rgb(255, 190, 197)" cx="27.39" cy="27.39" r="6.573600000000001" fill-opacity="1"
                transform="matrix(0.8940112590789795,0,0,0.8940112590789795,713.5334671078497,658.7534378109747)"
                data-idx="324">

        </circle>
        <circle fill="rgb(255, 196, 203)" cx="27.39" cy="27.39" r="6.573600000000001" fill-opacity="1"
                transform="matrix(0.8996093273162842,0,0,0.8996093273162842,713.4598634482998,768.2398317100185)"
                data-idx="326">

        </circle>
        <circle fill="rgb(255, 225, 228)" cx="27.39" cy="27.39" r="6.573600000000001" fill-opacity="1"
                transform="matrix(0.9232881665229797,0,0,0.9232881665229797,767.9285368485437,55.78854508828982)"
                data-idx="328">

        </circle>
        <circle fill="rgb(255, 233, 235)" cx="27.39" cy="27.39" r="6.573600000000001" fill-opacity="0.9597445329666989"
                transform="matrix(1.020255446434021,0,0,1.020255446434021,766.653722618505,109.2936991199698)"
                data-idx="330">

        </circle>
        <circle fill="rgb(255, 224, 227)" cx="27.39" cy="27.39" r="6.573600000000001" fill-opacity="1"
                transform="matrix(0.9001210331916809,0,0,0.9001210331916809,768.2331110267767,220.43312323380798)"
                data-idx="332">

        </circle>
        <circle fill="rgb(255, 174, 184)" cx="27.39" cy="27.39" r="6.573600000000001" fill-opacity="0.9677941481763834"
                transform="matrix(1.0122058391571045,0,0,1.0122058391571045,766.759554995883,273.73953546463304)"
                data-idx="334">

        </circle>
        <circle fill="rgb(255, 208, 213)" cx="27.39" cy="27.39" r="6.573600000000001" fill-opacity="0.6656643831924742"
                transform="matrix(1.314335584640503,0,0,1.314335584640503,762.787390972381,324.54737022042787)"
                data-idx="336">

        </circle>
        <circle fill="rgb(255, 167, 177)" cx="27.39" cy="27.39" r="6.573600000000001" fill-opacity="1"
                transform="matrix(0.947575569152832,0,0,0.947575569152832,767.6092132143503,384.1492217592722)"
                data-idx="338">

        </circle>
        <circle fill="rgb(255, 181, 189)" cx="27.39" cy="27.39" r="6.573600000000001" fill-opacity="0.9486806701337285"
                transform="matrix(1.0313193798065186,0,0,1.0313193798065186,766.5082388418803,437.828246166099)"
                data-idx="340">

        </circle>
        <circle fill="rgb(255, 226, 229)" cx="27.39" cy="27.39" r="6.573600000000001" fill-opacity="1"
                transform="matrix(0.7411184906959534,0,0,0.7411184906959534,770.323557161551,496.42356326506666)"
                data-idx="342">

        </circle>
        <circle fill="rgb(255, 162, 172)" cx="27.39" cy="27.39" r="6.573600000000001" fill-opacity="1"
                transform="matrix(0.7185906171798706,0,0,0.7185906171798706,770.6197176757995,551.499722558612)"
                data-idx="344">

        </circle>
        <circle fill="rgb(255, 167, 177)" cx="27.39" cy="27.39" r="6.573600000000001" fill-opacity="0.7285571547561562"
                transform="matrix(1.251442790031433,0,0,1.251442790031433,763.6142141486924,599.2742483283799)"
                data-idx="346">

        </circle>
        <circle fill="rgb(255, 197, 203)" cx="27.39" cy="27.39" r="6.573600000000001" fill-opacity="0.7010713934592023"
                transform="matrix(1.278928518295288,0,0,1.278928518295288,763.2528699079519,653.6928723493581)"
                data-idx="348">

        </circle>
        <circle fill="rgb(255, 163, 174)" cx="27.39" cy="27.39" r="6.573600000000001" fill-opacity="1"
                transform="matrix(0.7771105170249939,0,0,0.7771105170249939,769.8503877182948,715.0703584214198)"
                data-idx="350">

        </circle>
        <circle fill="rgb(255, 204, 210)" cx="27.39" cy="27.39" r="6.573600000000001" fill-opacity="1"
                transform="matrix(0.6531615853309631,0,0,0.6531615853309631,771.4799366935749,771.4799366935749)"
                data-idx="352">

        </circle>
        <circle fill="rgb(255, 185, 193)" cx="27.39" cy="27.39" r="6.573600000000001" fill-opacity="0.9848336316823405"
                transform="matrix(0.9951664209365845,0,0,0.9951664209365845,821.7635330857889,164.40354773422644)"
                data-idx="354">

        </circle>
        <circle fill="rgb(255, 191, 198)" cx="27.39" cy="27.39" r="6.573600000000001" fill-opacity="1"
                transform="matrix(0.6548905968666077,0,0,0.6548905968666077,826.237247621476,333.217228090226)"
                data-idx="356">

        </circle>
        <circle fill="rgb(255, 166, 176)" cx="27.39" cy="27.39" r="6.573600000000001" fill-opacity="0.8086564557409945"
                transform="matrix(1.1713435649871826,0,0,1.1713435649871826,819.4473339894982,381.2073132375451)"
                data-idx="358">

        </circle>
        <circle fill="rgb(255, 237, 238)" cx="27.39" cy="27.39" r="6.573600000000001" fill-opacity="0.6261949354089373"
                transform="matrix(1.3538050651550293,0,0,1.3538050651550293,817.048442215058,433.5884507599799)"
                data-idx="360">

        </circle>
        <circle fill="rgb(255, 190, 197)" cx="27.39" cy="27.39" r="6.573600000000001" fill-opacity="0.9449445521445745"
                transform="matrix(1.03505539894104,0,0,1.03505539894104,821.2391118760936,492.55911920031235)"
                data-idx="362">

        </circle>
        <circle fill="rgb(255, 163, 173)" cx="27.39" cy="27.39" r="6.573600000000001" fill-opacity="0.8760245717935649"
                transform="matrix(1.1039754152297974,0,0,1.1039754152297974,820.3329953048989,546.4330319259926)"
                data-idx="364">

        </circle>
        <circle fill="rgb(255, 168, 178)" cx="27.39" cy="27.39" r="6.573600000000001" fill-opacity="1"
                transform="matrix(0.8714768290519714,0,0,0.8714768290519714,823.3897293157272,604.2697341985397)"
                data-idx="366">

        </circle>
        <circle fill="rgb(255, 170, 180)" cx="27.39" cy="27.39" r="6.573600000000001" fill-opacity="1"
                transform="matrix(0.8678255677223206,0,0,0.8678255677223206,823.4377180629358,659.0977522426233)"
                data-idx="368">

        </circle>
        <circle fill="rgb(255, 222, 225)" cx="27.39" cy="27.39" r="6.573600000000001" fill-opacity="1"
                transform="matrix(0.8187256455421448,0,0,0.8187256455421448,824.083235208564,714.5232376499703)"
                data-idx="370">

        </circle>
        <circle fill="rgb(255, 194, 201)" cx="27.39" cy="27.39" r="6.573600000000001" fill-opacity="1"
                transform="matrix(0.9649398922920227,0,0,0.9649398922920227,822.160960657656,767.380931360781)"
                data-idx="372">

        </circle>
        <circle fill="rgb(255, 162, 173)" cx="27.39" cy="27.39" r="6.573600000000001" fill-opacity="1"
                transform="matrix(0.6799938678741455,0,0,0.6799938678741455,825.9071897013157,825.9071897013157)"
                data-idx="374">

        </circle>
        <circle fill="rgb(255, 173, 182)" cx="27.39" cy="27.39" r="6.573600000000001" fill-opacity="0.8908377649700163"
                transform="matrix(1.0891622304916382,0,0,1.0891622304916382,820.5277833627337,875.3077516244524)"
                data-idx="376">

        </circle>
        <circle fill="rgb(255, 208, 213)" cx="27.39" cy="27.39" r="6.573600000000001" fill-opacity="0.6573939931551251"
                transform="matrix(1.322606086730957,0,0,1.322606086730957,872.2386392357412,105.31863343740133)"
                data-idx="378">

        </circle>
        <circle fill="rgb(255, 230, 232)" cx="27.39" cy="27.39" r="6.573600000000001" fill-opacity="0.9718923378001796"
                transform="matrix(1.0081076622009277,0,0,1.0081076622009277,876.3734088336655,219.01340822331395)"
                data-idx="380">

        </circle>
        <circle fill="rgb(255, 220, 223)" cx="27.39" cy="27.39" r="6.573600000000001" fill-opacity="1"
                transform="matrix(0.6223658323287964,0,0,0.6223658323287964,881.4448268216992,278.86484024943354)"
                data-idx="382">

        </circle>
        <circle fill="rgb(255, 195, 202)" cx="27.39" cy="27.39" r="6.573600000000001" fill-opacity="1"
                transform="matrix(0.9503950476646423,0,0,0.9503950476646423,877.1321829971757,329.3321646866288)"
                data-idx="384">

        </circle>
        <circle fill="rgb(255, 172, 182)" cx="27.39" cy="27.39" r="6.573600000000001" fill-opacity="0.6738600854964951"
                transform="matrix(1.3061399459838867,0,0,1.3061399459838867,872.4550963875472,379.4351073738753)"
                data-idx="386">

        </circle>
        <circle fill="rgb(255, 184, 192)" cx="27.39" cy="27.39" r="6.573600000000001" fill-opacity="0.6838007154162806"
                transform="matrix(1.2961993217468262,0,0,1.2961993217468262,872.5858107255403,434.34582049116534)"
                data-idx="388">

        </circle>
        <circle fill="rgb(255, 190, 197)" cx="27.39" cy="27.39" r="6.573600000000001" fill-opacity="0.5950086471911837"
                transform="matrix(1.3849914073944092,0,0,1.3849914073944092,871.4184478885024,487.9584564334243)"
                data-idx="390">

        </circle>
        <circle fill="rgb(255, 235, 236)" cx="27.39" cy="27.39" r="6.573600000000001" fill-opacity="0.7798129539361947"
                transform="matrix(1.200187087059021,0,0,1.200187087059021,873.8481212845385,545.1681286087572)"
                data-idx="392">

        </circle>
        <circle fill="rgb(255, 173, 183)" cx="27.39" cy="27.39" r="6.573600000000001" fill-opacity="1"
                transform="matrix(0.7248772382736206,0,0,0.7248772382736206,880.0970687023508,606.1971053234446)"
                data-idx="394">

        </circle>
        <circle fill="rgb(255, 230, 233)" cx="27.39" cy="27.39" r="6.573600000000001" fill-opacity="0.7312980254589405"
                transform="matrix(1.2487019300460815,0,0,1.2487019300460815,873.2102954302298,654.0902392778861)"
                data-idx="396">

        </circle>
        <circle fill="rgb(255, 183, 191)" cx="27.39" cy="27.39" r="6.573600000000001" fill-opacity="0.7381127875429678"
                transform="matrix(1.2418872117996216,0,0,1.2418872117996216,873.2998314303678,708.9598656100553)"
                data-idx="398">

        </circle>
        <circle fill="rgb(255, 164, 174)" cx="27.39" cy="27.39" r="6.573600000000001" fill-opacity="1"
                transform="matrix(0.8780938386917114,0,0,0.8780938386917114,878.0827429728498,768.5227454142561)"
                data-idx="400">

        </circle>
        <circle fill="rgb(255, 207, 212)" cx="27.39" cy="27.39" r="6.573600000000001" fill-opacity="0.9747868619102993"
                transform="matrix(1.0052131414413452,0,0,1.0052131414413452,931.191447485265,164.27146457510878)"
                data-idx="402">

        </circle>
        <circle fill="rgb(255, 206, 211)" cx="27.39" cy="27.39" r="6.573600000000001" fill-opacity="0.9943671311067108"
                transform="matrix(0.9856328368186951,0,0,0.9856328368186951,931.4488837166487,219.30888432700016)"
                data-idx="404">

        </circle>
        <circle fill="rgb(255, 234, 236)" cx="27.39" cy="27.39" r="6.573600000000001" fill-opacity="1"
                transform="matrix(0.6769610047340393,0,0,0.6769610047340393,935.507082584581,278.1470667154404)"
                data-idx="406">

        </circle>
        <circle fill="rgb(255, 211, 216)" cx="27.39" cy="27.39" r="6.573600000000001" fill-opacity="0.7728974805641204"
                transform="matrix(1.2071025371551514,0,0,1.2071025371551514,928.5371589533759,325.95717238111024)"
                data-idx="408">

        </circle>
        <circle fill="rgb(255, 166, 176)" cx="27.39" cy="27.39" r="6.573600000000001" fill-opacity="1"
                transform="matrix(0.7196744084358215,0,0,0.7196744084358215,934.9454790079869,387.14549121501824)"
                data-idx="410">

        </circle>
        <circle fill="rgb(255, 185, 192)" cx="27.39" cy="27.39" r="6.573600000000001" fill-opacity="0.956578308135928"
                transform="matrix(1.0234216451644897,0,0,1.0234216451644897,930.9520621271462,437.9320731134743)"
                data-idx="412">

        </circle>
        <circle fill="rgb(255, 190, 197)" cx="27.39" cy="27.39" r="6.573600000000001" fill-opacity="0.9025803790979514"
                transform="matrix(1.077419638633728,0,0,1.077419638633728,930.2421204584965,492.00216074169964)"
                data-idx="414">

        </circle>
        <circle fill="rgb(255, 208, 213)" cx="27.39" cy="27.39" r="6.573600000000001" fill-opacity="1"
                transform="matrix(0.740041196346283,0,0,0.740041196346283,934.6777457970829,551.2177238244267)"
                data-idx="416">

        </circle>
        <circle fill="rgb(255, 231, 233)" cx="27.39" cy="27.39" r="6.573600000000001" fill-opacity="0.5938705804804894"
                transform="matrix(1.386129379272461,0,0,1.386129379272461,926.1834892894312,597.50349661365)"
                data-idx="418">

        </circle>
        <circle fill="rgb(255, 205, 210)" cx="27.39" cy="27.39" r="6.573600000000001" fill-opacity="0.6773458667246361"
                transform="matrix(1.3026541471481323,0,0,1.3026541471481323,927.2809281145991,653.3809647356928)"
                data-idx="420">

        </circle>
        <circle fill="rgb(255, 211, 216)" cx="27.39" cy="27.39" r="6.573600000000001" fill-opacity="0.6714852558997892"
                transform="matrix(1.3085147142410278,0,0,1.3085147142410278,927.2038899082455,708.083894791058)"
                data-idx="422">

        </circle>
        <circle fill="rgb(255, 204, 210)" cx="27.39" cy="27.39" r="6.573600000000001" fill-opacity="1"
                transform="matrix(0.9716638922691345,0,0,0.9716638922691345,986.4125361398355,0.3725404695168777)"
                data-idx="424">

        </circle>
        <circle fill="rgb(255, 170, 180)" cx="27.39" cy="27.39" r="6.573600000000001" fill-opacity="1"
                transform="matrix(0.7249157428741455,0,0,0.7249157428741455,989.6565690064847,113.17658853773469)"
                data-idx="426">

        </circle>
        <circle fill="rgb(255, 161, 172)" cx="27.39" cy="27.39" r="6.573600000000001" fill-opacity="0.6733127472099572"
                transform="matrix(1.306687355041504,0,0,1.306687355041504,982.0078944238421,160.30792799317805)"
                data-idx="428">

        </circle>
        <circle fill="rgb(255, 174, 183)" cx="27.39" cy="27.39" r="6.573600000000001" fill-opacity="0.649114454061031"
                transform="matrix(1.3308855295181274,0,0,1.3308855295181274,981.6897676913828,214.76978478122658)"
                data-idx="430">

        </circle>
        <circle fill="rgb(255, 238, 239)" cx="27.39" cy="27.39" r="6.573600000000001" fill-opacity="0.6999180488407717"
                transform="matrix(1.2800819873809814,0,0,1.2800819873809814,982.3577142215956,270.21769957315814)"
                data-idx="432">

        </circle>
        <circle fill="rgb(255, 180, 188)" cx="27.39" cy="27.39" r="6.573600000000001" fill-opacity="0.8192967846039692"
                transform="matrix(1.160703182220459,0,0,1.160703182220459,983.927191717064,326.56720636550153)"
                data-idx="434">

        </circle>
        <circle fill="rgb(255, 225, 228)" cx="27.39" cy="27.39" r="6.573600000000001" fill-opacity="1"
                transform="matrix(0.8433277010917664,0,0,0.8433277010917664,988.0997948321517,385.519808259886)"
                data-idx="436">

        </circle>
        <circle fill="rgb(255, 172, 182)" cx="27.39" cy="27.39" r="6.573600000000001" fill-opacity="1"
                transform="matrix(0.9122439026832581,0,0,0.9122439026832581,987.1937643724063,439.39374606185953)"
                data-idx="438">

        </circle>
        <circle fill="rgb(255, 206, 211)" cx="27.39" cy="27.39" r="6.573600000000001" fill-opacity="0.8136239071567963"
                transform="matrix(1.1663761138916016,0,0,1.1663761138916016,983.8526076540093,490.8326186403374)"
                data-idx="440">

        </circle>
        <circle fill="rgb(255, 191, 198)" cx="27.39" cy="27.39" r="6.573600000000001" fill-opacity="1"
                transform="matrix(0.6449819803237915,0,0,0.6449819803237915,990.7074732333837,552.4674829990087)"
                data-idx="442">

        </circle>
        <circle fill="rgb(255, 208, 213)" cx="27.39" cy="27.39" r="6.573600000000001" fill-opacity="1"
                transform="matrix(0.653944194316864,0,0,0.653944194316864,990.5896602993523,607.1296383266961)"
                data-idx="444">

        </circle>
        <circle fill="rgb(255, 179, 188)" cx="27.39" cy="27.39" r="6.573600000000001" fill-opacity="0.6235057491850917"
                transform="matrix(1.3564943075180054,0,0,1.3564943075180054,981.3530908721135,652.6730981963323)"
                data-idx="446">

        </circle>
        <circle fill="rgb(255, 183, 191)" cx="27.39" cy="27.39" r="6.573600000000001" fill-opacity="0.7180840982464995"
                transform="matrix(1.261915922164917,0,0,1.261915922164917,982.5965154301709,708.6965520512647)"
                data-idx="448">

        </circle>
        <circle fill="rgb(255, 212, 216)" cx="27.39" cy="27.39" r="6.573600000000001" fill-opacity="0.7701744008867251"
                transform="matrix(1.2098256349563599,0,0,1.2098256349563599,983.2814043942664,818.9413775387976)"
                data-idx="450">

        </circle>
        <circle fill="rgb(255, 217, 221)" cx="27.39" cy="27.39" r="6.573600000000001" fill-opacity="1"
                transform="matrix(0.7673755288124084,0,0,0.7673755288124084,989.098341595949,934.3183733342303)"
                data-idx="452">

        </circle>
        <circle fill="rgb(255, 174, 183)" cx="27.39" cy="27.39" r="6.573600000000001" fill-opacity="0.591890537743559"
                transform="matrix(1.3881094455718994,0,0,1.3881094455718994,1035.717409161127,-5.102552386724483)"
                data-idx="454">

        </circle>
        <circle fill="rgb(255, 192, 199)" cx="27.39" cy="27.39" r="6.573600000000001" fill-opacity="0.8155591851039952"
                transform="matrix(1.1644408702850342,0,0,1.1644408702850342,1038.658053780399,52.61806430896354)"
                data-idx="456">

        </circle>
        <circle fill="rgb(255, 236, 238)" cx="27.39" cy="27.39" r="6.573600000000001" fill-opacity="1"
                transform="matrix(0.6513102650642395,0,0,0.6513102650642395,1045.404337977451,223.70429525284163)"
                data-idx="458">

        </circle>
        <circle fill="rgb(255, 203, 208)" cx="27.39" cy="27.39" r="6.573600000000001" fill-opacity="0.5876869355573913"
                transform="matrix(1.3923131227493286,0,0,1.3923131227493286,1035.6621879789845,323.52217333054716)"
                data-idx="460">

        </circle>
        <circle fill="rgb(255, 184, 192)" cx="27.39" cy="27.39" r="6.573600000000001" fill-opacity="0.7315067744887425"
                transform="matrix(1.2484931945800781,0,0,1.2484931945800781,1037.5530372025569,380.19302133341625)"
                data-idx="462">

        </circle>
        <circle fill="rgb(255, 231, 233)" cx="27.39" cy="27.39" r="6.573600000000001" fill-opacity="1"
                transform="matrix(0.7898110151290894,0,0,0.7898110151290894,1043.583367011459,441.0034109567713)"
                data-idx="464">

        </circle>
        <circle fill="rgb(255, 235, 237)" cx="27.39" cy="27.39" r="6.573600000000001" fill-opacity="1"
                transform="matrix(0.8460128903388977,0,0,0.8460128903388977,1042.8445336093312,495.04451529878435)"
                data-idx="466">

        </circle>
        <circle fill="rgb(255, 202, 207)" cx="27.39" cy="27.39" r="6.573600000000001" fill-opacity="0.7068622954342949"
                transform="matrix(1.2731376886367798,0,0,1.2731376886367798,1037.2290468562883,544.2090273250384)"
                data-idx="468">

        </circle>
        <circle fill="rgb(255, 184, 192)" cx="27.39" cy="27.39" r="6.573600000000001" fill-opacity="0.7372044103059561"
                transform="matrix(1.2427955865859985,0,0,1.2427955865859985,1037.6279665833522,599.387915313821)"
                data-idx="470">

        </circle>
        <circle fill="rgb(255, 184, 192)" cx="27.39" cy="27.39" r="6.573600000000001" fill-opacity="1"
                transform="matrix(0.8762542009353638,0,0,0.8762542009353638,1042.4468867965152,658.9869258590153)"
                data-idx="472">

        </circle>
        <circle fill="rgb(255, 223, 226)" cx="27.39" cy="27.39" r="6.573600000000001" fill-opacity="0.6044026271521648"
                transform="matrix(1.375597357749939,0,0,1.375597357749939,1035.8819340099485,707.2019413341671)"
                data-idx="474">

        </circle>
        <circle fill="rgb(255, 198, 204)" cx="27.39" cy="27.39" r="6.573600000000001" fill-opacity="0.8681797998489555"
                transform="matrix(1.1118202209472656,0,0,1.1118202209472656,1039.3499081367954,765.4498837227329)"
                data-idx="476">

        </circle>
        <circle fill="rgb(255, 190, 197)" cx="27.39" cy="27.39" r="6.573600000000001" fill-opacity="1"
                transform="matrix(0.7153344750404358,0,0,0.7153344750404358,1099.3425993019473,168.08255901874423)"
                data-idx="478">

        </circle>
        <circle fill="rgb(255, 187, 194)" cx="27.39" cy="27.39" r="6.573600000000001" fill-opacity="0.6982140730003623"
                transform="matrix(1.2817859649658203,0,0,1.2817859649658203,1091.8953410798586,324.97529713454605)"
                data-idx="480">

        </circle>
        <circle fill="rgb(255, 181, 189)" cx="27.39" cy="27.39" r="6.573600000000001" fill-opacity="0.7546604456452226"
                transform="matrix(1.2253395318984985,0,0,1.2253395318984985,1092.6373690215355,380.49741540825437)"
                data-idx="482">

        </circle>
        <circle fill="rgb(255, 201, 207)" cx="27.39" cy="27.39" r="6.573600000000001" fill-opacity="1"
                transform="matrix(0.8731374740600586,0,0,0.8731374740600586,1097.2679120211023,439.9078961519617)"
                data-idx="484">

        </circle>
        <circle fill="rgb(255, 177, 186)" cx="27.39" cy="27.39" r="6.573600000000001" fill-opacity="1"
                transform="matrix(0.6847302317619324,0,0,0.6847302317619324,1099.7449512249125,497.16490361749055)"
                data-idx="486">

        </circle>
        <circle fill="rgb(255, 175, 184)" cx="27.39" cy="27.39" r="6.573600000000001" fill-opacity="1"
                transform="matrix(0.6580073833465576,0,0,0.6580073833465576,1100.0962757160094,552.2962268878844)"
                data-idx="488">

        </circle>
        <circle fill="rgb(255, 223, 226)" cx="27.39" cy="27.39" r="6.573600000000001" fill-opacity="1"
                transform="matrix(0.9631189703941345,0,0,0.9631189703941345,1096.0848569390391,603.0648984429454)"
                data-idx="490">

        </circle>
        <circle fill="rgb(255, 168, 178)" cx="27.39" cy="27.39" r="6.573600000000001" fill-opacity="1"
                transform="matrix(0.8505999445915222,0,0,0.8505999445915222,1097.5641360097181,659.3242068104994)"
                data-idx="492">

        </circle>
        <circle fill="rgb(255, 192, 199)" cx="27.39" cy="27.39" r="6.573600000000001" fill-opacity="1"
                transform="matrix(0.7483853697776794,0,0,0.7483853697776794,1153.68808008703,58.08802820714703)"
                data-idx="494">

        </circle>
        <circle fill="rgb(255, 198, 204)" cx="27.39" cy="27.39" r="6.573600000000001" fill-opacity="0.9277407107108482"
                transform="matrix(1.0522593259811401,0,0,1.0522593259811401,1149.6929757108855,108.87293786908856)"
                data-idx="496">

        </circle>
        <circle fill="rgb(255, 169, 179)" cx="27.39" cy="27.39" r="6.573600000000001" fill-opacity="1"
                transform="matrix(0.6386218667030334,0,0,0.6386218667030334,1155.1310569774505,169.09110946768493)"
                data-idx="498">

        </circle>
        <circle fill="rgb(255, 209, 214)" cx="27.39" cy="27.39" r="6.573600000000001" fill-opacity="0.6338129135856232"
                transform="matrix(1.3461871147155762,0,0,1.3461871147155762,1145.8285610765665,214.56861234609778)"
                data-idx="500">

        </circle>
        <circle fill="rgb(255, 222, 225)" cx="27.39" cy="27.39" r="6.573600000000001" fill-opacity="1"
                transform="matrix(0.7408300638198853,0,0,0.7408300638198853,1153.787306191754,277.3073562405822)"
                data-idx="502">

        </circle>
        <circle fill="rgb(255, 182, 190)" cx="27.39" cy="27.39" r="6.573600000000001" fill-opacity="1"
                transform="matrix(0.8327240943908691,0,0,0.8327240943908691,1152.5792277031092,330.8792154960779)"
                data-idx="504">

        </circle>
        <circle fill="rgb(255, 185, 193)" cx="27.39" cy="27.39" r="6.573600000000001" fill-opacity="1"
                transform="matrix(0.9099811911582947,0,0,0.9099811911582947,1151.5634358957504,384.64348350317226)"
                data-idx="506">

        </circle>
        <circle fill="rgb(255, 201, 207)" cx="27.39" cy="27.39" r="6.573600000000001" fill-opacity="1"
                transform="matrix(0.8797107338905334,0,0,0.8797107338905334,1151.9615184477443,439.82147328172874)"
                data-idx="508">

        </circle>
        <circle fill="rgb(255, 161, 172)" cx="27.39" cy="27.39" r="6.573600000000001" fill-opacity="0.9531660785667979"
                transform="matrix(1.0268338918685913,0,0,1.0268338918685913,1150.027226597686,492.66721072854523)"
                data-idx="510">

        </circle>
        <circle fill="rgb(255, 225, 228)" cx="27.39" cy="27.39" r="6.573600000000001" fill-opacity="0.9006777313179595"
                transform="matrix(1.0793222188949585,0,0,1.0793222188949585,1149.337096567399,546.7571405127113)"
                data-idx="512">

        </circle>
        <circle fill="rgb(255, 179, 188)" cx="27.39" cy="27.39" r="6.573600000000001" fill-opacity="0.8475380747653156"
                transform="matrix(1.1324619054794312,0,0,1.1324619054794312,1148.638534369416,600.8384855412909)"
                data-idx="514">

        </circle>
        <circle fill="rgb(255, 234, 235)" cx="27.39" cy="27.39" r="6.573600000000001" fill-opacity="0.9294793228376206"
                transform="matrix(1.050520658493042,0,0,1.050520658493042,1149.7157575542267,656.6957990581329)"
                data-idx="516">

        </circle>
        <circle fill="rgb(255, 191, 198)" cx="27.39" cy="27.39" r="6.573600000000001" fill-opacity="0.7124179257861383"
                transform="matrix(1.2675820589065552,0,0,1.2675820589065552,1146.8620028897321,708.6220736905135)"
                data-idx="518">

        </circle>
        <circle fill="rgb(255, 159, 170)" cx="27.39" cy="27.39" r="6.573600000000001" fill-opacity="1"
                transform="matrix(0.9034297466278076,0,0,0.9034297466278076,1151.649593290619,768.1896323531189)"
                data-idx="520">

        </circle>
        <circle fill="rgb(255, 166, 176)" cx="27.39" cy="27.39" r="6.573600000000001" fill-opacity="0.8625054696668015"
                transform="matrix(1.1174945831298828,0,0,1.1174945831298828,1148.8353122287244,820.1552585177869)"
                data-idx="522">

        </circle>
        <circle fill="rgb(255, 195, 201)" cx="27.39" cy="27.39" r="6.573600000000001" fill-opacity="1"
                transform="matrix(0.7372058033943176,0,0,0.7372058033943176,1153.8350564106684,934.7150002583246)"
                data-idx="524">

        </circle>
        <circle fill="rgb(255, 161, 172)" cx="27.39" cy="27.39" r="6.573600000000001" fill-opacity="0.8697071543275938"
                transform="matrix(1.1102927923202515,0,0,1.1102927923202515,1203.7099244272736,53.329957691433606)"
                data-idx="526">

        </circle>
        <circle fill="rgb(255, 204, 209)" cx="27.39" cy="27.39" r="6.573600000000001" fill-opacity="1"
                transform="matrix(0.8906927704811096,0,0,0.8906927704811096,1206.5970906059151,110.99708450239956)"
                data-idx="528">

        </circle>
        <circle fill="rgb(255, 203, 209)" cx="27.39" cy="27.39" r="6.573600000000001" fill-opacity="1"
                transform="matrix(0.6479465961456299,0,0,0.6479465961456299,1209.7885099377083,223.74851665157553)"
                data-idx="530">

        </circle>
        <circle fill="rgb(255, 226, 229)" cx="27.39" cy="27.39" r="6.573600000000001" fill-opacity="1"
                transform="matrix(0.7783492207527161,0,0,0.7783492207527161,1208.0741175342926,276.8140772510895)"
                data-idx="532">

        </circle>
        <circle fill="rgb(255, 222, 226)" cx="27.39" cy="27.39" r="6.573600000000001" fill-opacity="1"
                transform="matrix(0.6942002773284912,0,0,0.6942002773284912,1209.180379599187,332.70039913043706)"
                data-idx="534">

        </circle>
        <circle fill="rgb(255, 182, 191)" cx="27.39" cy="27.39" r="6.573600000000001" fill-opacity="1"
                transform="matrix(0.6805546283721924,0,0,0.6805546283721924,1209.3598023143343,387.65982062488115)"
                data-idx="536">

        </circle>
        <circle fill="rgb(255, 230, 233)" cx="27.39" cy="27.39" r="6.573600000000001" fill-opacity="0.736636815698247"
                transform="matrix(1.2433631420135498,0,0,1.2433631420135498,1201.9604173417235,435.0404649491454)"
                data-idx="538">

        </circle>
        <circle fill="rgb(255, 179, 188)" cx="27.39" cy="27.39" r="6.573600000000001" fill-opacity="1"
                transform="matrix(0.7833836674690247,0,0,0.7833836674690247,1208.0079420416002,495.8678968755847)"
                data-idx="540">

        </circle>
        <circle fill="rgb(255, 176, 185)" cx="27.39" cy="27.39" r="6.573600000000001" fill-opacity="0.977995702727513"
                transform="matrix(1.0020042657852173,0,0,1.0020042657852173,1205.1336839278106,547.773637541092)"
                data-idx="542">

        </circle>
        <circle fill="rgb(255, 168, 178)" cx="27.39" cy="27.39" r="6.573600000000001" fill-opacity="1"
                transform="matrix(0.6857278943061829,0,0,0.6857278943061829,1209.2917377171582,606.7117816624707)"
                data-idx="544">

        </circle>
        <circle fill="rgb(255, 183, 191)" cx="27.39" cy="27.39" r="6.573600000000001" fill-opacity="1"
                transform="matrix(0.6535669565200806,0,0,0.6535669565200806,1209.714576633101,661.9146498752885)"
                data-idx="546">

        </circle>
        <circle fill="rgb(255, 218, 222)" cx="27.39" cy="27.39" r="6.573600000000001" fill-opacity="0.9353939018963291"
                transform="matrix(1.04460608959198,0,0,1.04460608959198,1204.5736072898253,711.5535267234189)"
                data-idx="548">

        </circle>
        <circle fill="rgb(255, 227, 230)" cx="27.39" cy="27.39" r="6.573600000000001" fill-opacity="0.624817309619782"
                transform="matrix(1.3551826477050781,0,0,1.3551826477050781,1255.270282534755,214.4503362456926)"
                data-idx="550">

        </circle>
        <circle fill="rgb(255, 210, 215)" cx="27.39" cy="27.39" r="6.573600000000001" fill-opacity="0.938404390440037"
                transform="matrix(1.0415955781936646,0,0,1.0415955781936646,1259.3930798041847,273.3531322944192)"
                data-idx="552">

        </circle>
        <circle fill="rgb(255, 224, 227)" cx="27.39" cy="27.39" r="6.573600000000001" fill-opacity="1"
                transform="matrix(0.9164962768554688,0,0,0.9164962768554688,1261.0378202436768,329.77784099562996)"
                data-idx="554">

        </circle>
        <circle fill="rgb(255, 238, 240)" cx="27.39" cy="27.39" r="6.573600000000001" fill-opacity="1"
                transform="matrix(0.8832036256790161,0,0,0.8832036256790161,1261.4755448796159,384.99553389328787)"
                data-idx="556">

        </circle>
        <circle fill="rgb(255, 202, 208)" cx="27.39" cy="27.39" r="6.573600000000001" fill-opacity="1"
                transform="matrix(0.681566596031189,0,0,0.681566596031189,1264.1264654736055,442.42651430173044)"
                data-idx="558">

        </circle>
        <circle fill="rgb(255, 230, 232)" cx="27.39" cy="27.39" r="6.573600000000001" fill-opacity="0.6432325784462463"
                transform="matrix(1.3367674350738525,0,0,1.3367674350738525,1255.5124305231077,488.59244761295145)"
                data-idx="560">

        </circle>
        <circle fill="rgb(255, 236, 237)" cx="27.39" cy="27.39" r="6.573600000000001" fill-opacity="1"
                transform="matrix(0.9023276567459106,0,0,0.9023276567459106,1261.2240987306504,549.0841451173693)"
                data-idx="562">

        </circle>
        <circle fill="rgb(255, 171, 181)" cx="27.39" cy="27.39" r="6.573600000000001" fill-opacity="0.7321384872696288"
                transform="matrix(1.2478615045547485,0,0,1.2478615045547485,1256.6813351878031,599.3212888010845)"
                data-idx="564">

        </circle>
        <circle fill="rgb(255, 161, 172)" cx="27.39" cy="27.39" r="6.573600000000001" fill-opacity="0.9061496707774448"
                transform="matrix(1.073850393295288,0,0,1.073850393295288,1258.969135495088,765.9490549286818)"
                data-idx="566">

        </circle>
        <circle fill="rgb(255, 217, 221)" cx="27.39" cy="27.39" r="6.573600000000001" fill-opacity="0.9760451049165126"
                transform="matrix(1.0039548873901367,0,0,1.0039548873901367,1259.8879511657387,876.4279902282387)"
                data-idx="568">

        </circle>
        <circle fill="rgb(255, 163, 174)" cx="27.39" cy="27.39" r="6.573600000000001" fill-opacity="0.8072036250256842"
                transform="matrix(1.172796368598938,0,0,1.172796368598938,1312.4482208516629,52.508210780862214)"
                data-idx="570">

        </circle>
        <circle fill="rgb(255, 187, 194)" cx="27.39" cy="27.39" r="6.573600000000001" fill-opacity="0.6299613513366129"
                transform="matrix(1.3500386476516724,0,0,1.3500386476516724,1310.1179399059938,269.2979630993533)"
                data-idx="572">

        </circle>
        <circle fill="rgb(255, 192, 199)" cx="27.39" cy="27.39" r="6.573600000000001" fill-opacity="1"
                transform="matrix(0.8915868997573853,0,0,0.8915868997573853,1316.1452901063071,330.1053425965416)"
                data-idx="574">

        </circle>
        <circle fill="rgb(255, 195, 202)" cx="27.39" cy="27.39" r="6.573600000000001" fill-opacity="1"
                transform="matrix(0.6969797611236572,0,0,0.6969797611236572,1318.7038564318993,387.44387718385246)"
                data-idx="576">

        </circle>
        <circle fill="rgb(255, 177, 186)" cx="27.39" cy="27.39" r="6.573600000000001" fill-opacity="0.8180632383234412"
                transform="matrix(1.1619367599487305,0,0,1.1619367599487305,1312.5910187058935,436.1109772019872)"
                data-idx="578">

        </circle>
        <circle fill="rgb(255, 223, 226)" cx="27.39" cy="27.39" r="6.573600000000001" fill-opacity="0.5959412310413548"
                transform="matrix(1.3840587139129639,0,0,1.3840587139129639,1309.6706727921999,487.97069110274674)"
                data-idx="580">

        </circle>
        <circle fill="rgb(255, 163, 174)" cx="27.39" cy="27.39" r="6.573600000000001" fill-opacity="0.9964836601082652"
                transform="matrix(0.9835164546966553,0,0,0.9835164546966553,1314.9367339540565,548.016690008744)"
                data-idx="582">

        </circle>
        <circle fill="rgb(255, 208, 213)" cx="27.39" cy="27.39" r="6.573600000000001" fill-opacity="1"
                transform="matrix(0.7699193358421326,0,0,0.7699193358421326,1317.744888669497,605.6049350562157)"
                data-idx="584">

        </circle>
        <circle fill="rgb(255, 217, 221)" cx="27.39" cy="27.39" r="6.573600000000001" fill-opacity="0.8305259076720688"
                transform="matrix(1.1494741439819336,0,0,1.1494741439819336,1312.7548521355993,655.3948057488806)"
                data-idx="586">

        </circle>
        <circle fill="rgb(255, 182, 190)" cx="27.39" cy="27.39" r="6.573600000000001" fill-opacity="0.7702371993175632"
                transform="matrix(1.2097628116607666,0,0,1.2097628116607666,1311.9621762561894,709.3822202015019)"
                data-idx="588">

        </circle>
        <circle fill="rgb(255, 203, 209)" cx="27.39" cy="27.39" r="6.573600000000001" fill-opacity="0.6338778564780161"
                transform="matrix(1.346122145652771,0,0,1.346122145652771,1310.1694422587484,762.3694544657795)"
                data-idx="590">

        </circle>
        <circle fill="rgb(255, 238, 239)" cx="27.39" cy="27.39" r="6.573600000000001" fill-opacity="0.8124680793642711"
                transform="matrix(1.1675318479537964,0,0,1.1675318479537964,1312.5173736020415,819.4974151059477)"
                data-idx="592">

        </circle>
        <circle fill="rgb(255, 164, 174)" cx="27.39" cy="27.39" r="6.573600000000001" fill-opacity="0.9242992292471575"
                transform="matrix(1.0557007789611816,0,0,1.0557007789611816,1368.7676430152737,108.8276939796292)"
                data-idx="594">

        </circle>
        <circle fill="rgb(255, 194, 201)" cx="27.39" cy="27.39" r="6.573600000000001" fill-opacity="0.942798008559627"
                transform="matrix(1.037202000617981,0,0,1.037202000617981,1369.0109506827375,218.63090002355796)"
                data-idx="596">

        </circle>
        <circle fill="rgb(255, 205, 210)" cx="27.39" cy="27.39" r="6.573600000000001" fill-opacity="1"
                transform="matrix(0.9246401190757751,0,0,0.9246401190757751,1370.4907556105236,274.89078002458604)"
                data-idx="598">

        </circle>
        <circle fill="rgb(255, 182, 190)" cx="27.39" cy="27.39" r="6.573600000000001" fill-opacity="0.7332593625946793"
                transform="matrix(1.2467405796051025,0,0,1.2467405796051025,1366.2560865123453,325.4360486705484)"
                data-idx="600">

        </circle>
        <circle fill="rgb(255, 174, 183)" cx="27.39" cy="27.39" r="6.573600000000001" fill-opacity="1"
                transform="matrix(0.7595490217208862,0,0,0.7595490217208862,1372.6612034957398,386.621255985974)"
                data-idx="602">

        </circle>
        <circle fill="rgb(255, 210, 214)" cx="27.39" cy="27.39" r="6.573600000000001" fill-opacity="1"
                transform="matrix(0.9604730010032654,0,0,0.9604730010032654,1370.019608881376,438.7596601509071)"
                data-idx="604">

        </circle>
        <circle fill="rgb(255, 218, 222)" cx="27.39" cy="27.39" r="6.573600000000001" fill-opacity="0.6575126279550503"
                transform="matrix(1.3224873542785645,0,0,1.3224873542785645,1365.2602327236496,488.7801912197433)"
                data-idx="606">

        </circle>
        <circle fill="rgb(255, 238, 239)" cx="27.39" cy="27.39" r="6.573600000000001" fill-opacity="0.9328521095074986"
                transform="matrix(1.0471478700637817,0,0,1.0471478700637817,1368.880140829685,547.1801286226538)"
                data-idx="608">

        </circle>
        <circle fill="rgb(255, 221, 224)" cx="27.39" cy="27.39" r="6.573600000000001" fill-opacity="0.71532921633675"
                transform="matrix(1.2646708488464355,0,0,1.2646708488464355,1366.020300175896,599.1003172657397)"
                data-idx="610">

        </circle>
        <circle fill="rgb(255, 210, 215)" cx="27.39" cy="27.39" r="6.573600000000001" fill-opacity="1"
                transform="matrix(0.8363872170448303,0,0,0.8363872170448303,1371.6510950663323,659.5110193827386)"
                data-idx="612">

        </circle>
        <circle fill="rgb(255, 237, 238)" cx="27.39" cy="27.39" r="6.573600000000001" fill-opacity="0.7445882265224193"
                transform="matrix(1.2354117631912231,0,0,1.2354117631912231,1366.4050205084568,709.0449741217382)"
                data-idx="614">

        </circle>
        <circle fill="rgb(255, 168, 178)" cx="27.39" cy="27.39" r="6.573600000000001" fill-opacity="0.8672070211142031"
                transform="matrix(1.11279296875,0,0,1.11279296875,1422.797126963269,162.8570940042846)" data-idx="616">

        </circle>
        <circle fill="rgb(255, 211, 215)" cx="27.39" cy="27.39" r="6.573600000000001" fill-opacity="0.869108940968176"
                transform="matrix(1.1108911037445068,0,0,1.1108911037445068,1422.822080234593,217.66209183127262)"
                data-idx="618">

        </circle>
        <circle fill="rgb(255, 217, 221)" cx="27.39" cy="27.39" r="6.573600000000001" fill-opacity="0.9128864483427646"
                transform="matrix(1.0671135187149048,0,0,1.0671135187149048,1423.3976983563357,273.01763243836706)"
                data-idx="620">

        </circle>
        <circle fill="rgb(255, 208, 213)" cx="27.39" cy="27.39" r="6.573600000000001" fill-opacity="0.7077592812431863"
                transform="matrix(1.2722406387329102,0,0,1.2722406387329102,1420.7007640158708,325.10078842993335)"
                data-idx="622">

        </circle>
        <circle fill="rgb(255, 225, 228)" cx="27.39" cy="27.39" r="6.573600000000001" fill-opacity="1"
                transform="matrix(0.7107844948768616,0,0,0.7107844948768616,1428.082347917898,387.26237111125744)"
                data-idx="624">

        </circle>
        <circle fill="rgb(255, 197, 203)" cx="27.39" cy="27.39" r="6.573600000000001" fill-opacity="0.6124843347681366"
                transform="matrix(1.3675156831741333,0,0,1.3675156831741333,1419.4482432981977,433.4082042356978)"
                data-idx="626">

        </circle>
        <circle fill="rgb(255, 185, 193)" cx="27.39" cy="27.39" r="6.573600000000001" fill-opacity="0.7496167328993939"
                transform="matrix(1.230383276939392,0,0,1.230383276939392,1421.2510640460036,489.9911153155348)"
                data-idx="628">

        </circle>
        <circle fill="rgb(255, 178, 187)" cx="27.39" cy="27.39" r="6.573600000000001" fill-opacity="1"
                transform="matrix(0.6382972002029419,0,0,0.6382972002029419,1429.035412884783,552.5553713808769)"
                data-idx="630">

        </circle>
        <circle fill="rgb(255, 182, 190)" cx="27.39" cy="27.39" r="6.573600000000001" fill-opacity="1"
                transform="matrix(0.9639102220535278,0,0,0.9639102220535278,1424.7544602547769,603.054509082902)"
                data-idx="632">

        </circle>
        <circle fill="rgb(255, 200, 206)" cx="27.39" cy="27.39" r="6.573600000000001" fill-opacity="1"
                transform="matrix(0.8508294820785522,0,0,0.8508294820785522,1426.2412159893233,659.3211720440107)"
                data-idx="634">

        </circle>
        <circle fill="rgb(255, 224, 227)" cx="27.39" cy="27.39" r="6.573600000000001" fill-opacity="0.9119502922818303"
                transform="matrix(1.068049669265747,0,0,1.068049669265747,1423.3853188913101,711.2453652780289)"
                data-idx="636">

        </circle>
        <circle fill="rgb(255, 208, 213)" cx="27.39" cy="27.39" r="6.573600000000001" fill-opacity="0.7788949993844656"
                transform="matrix(1.201104998588562,0,0,1.201104998588562,1421.6360326139775,764.2760472624149)"
                data-idx="638">

        </circle>
        <circle fill="rgb(255, 173, 182)" cx="27.39" cy="27.39" r="6.573600000000001" fill-opacity="1"
                transform="matrix(0.8275352120399475,0,0,0.8275352120399475,1481.327448667298,166.60743218780595)"
                data-idx="640">

        </circle>
        <circle fill="rgb(255, 230, 232)" cx="27.39" cy="27.39" r="6.573600000000001" fill-opacity="0.6310882509075642"
                transform="matrix(1.3489117622375488,0,0,1.3489117622375488,1474.4727597091191,214.53278778529102)"
                data-idx="642">

        </circle>
        <circle fill="rgb(255, 182, 190)" cx="27.39" cy="27.39" r="6.573600000000001" fill-opacity="1"
                transform="matrix(0.6904560327529907,0,0,0.6904560327529907,1483.1296753818247,277.96964120213727)"
                data-idx="644">

        </circle>
        <circle fill="rgb(255, 222, 226)" cx="27.39" cy="27.39" r="6.573600000000001" fill-opacity="1"
                transform="matrix(0.6590479612350464,0,0,0.6590479612350464,1483.5425603733938,333.1625554905812)"
                data-idx="646">

        </circle>
        <circle fill="rgb(255, 206, 211)" cx="27.39" cy="27.39" r="6.573600000000001" fill-opacity="0.7905018578812468"
                transform="matrix(1.1894981861114502,0,0,1.1894981861114502,1476.5686543965214,380.9686177754277)"
                data-idx="648">

        </circle>
        <circle fill="rgb(255, 179, 187)" cx="27.39" cy="27.39" r="6.573600000000001" fill-opacity="0.7790424014126938"
                transform="matrix(1.2009576559066772,0,0,1.2009576559066772,1476.418007045179,435.5979692033819)"
                data-idx="650">

        </circle>
        <circle fill="rgb(255, 240, 241)" cx="27.39" cy="27.39" r="6.573600000000001" fill-opacity="1"
                transform="matrix(0.9791205525398254,0,0,0.9791205525398254,1479.334527340038,493.2945187951162)"
                data-idx="652">

        </circle>
        <circle fill="rgb(255, 229, 231)" cx="27.39" cy="27.39" r="6.573600000000001" fill-opacity="1"
                transform="matrix(0.655956506729126,0,0,0.655956506729126,1483.5832681003506,552.3231972995693)"
                data-idx="654">

        </circle>
        <circle fill="rgb(255, 199, 205)" cx="27.39" cy="27.39" r="6.573600000000001" fill-opacity="0.8112647072866195"
                transform="matrix(1.1687352657318115,0,0,1.1687352657318115,1476.8416161354705,600.3615746315643)"
                data-idx="656">

        </circle>
        <circle fill="rgb(255, 238, 239)" cx="27.39" cy="27.39" r="6.573600000000001" fill-opacity="0.6984392125165304"
                transform="matrix(1.2815607786178589,0,0,1.2815607786178589,1475.358247146044,653.6582349390127)"
                data-idx="658">

        </circle>
        <circle fill="rgb(255, 212, 216)" cx="27.39" cy="27.39" r="6.573600000000001" fill-opacity="1"
                transform="matrix(0.7466134428977966,0,0,0.7466134428977966,1482.3913784158653,715.4713344705528)"
                data-idx="660">

        </circle>
        <circle fill="rgb(255, 169, 179)" cx="27.39" cy="27.39" r="6.573600000000001" fill-opacity="0.6141166786450407"
                transform="matrix(1.3658833503723145,0,0,1.3658833503723145,1474.249623014865,816.8896376633024)"
                data-idx="662">

        </circle>
        <g data-idx="664"></g>
    </g>
</svg>
